<svg xmlns="http://www.w3.org/2000/svg" width="1200" height="360" viewBox="0 0 1200 360" font-family="-apple-system,Segoe UI,Roboto,sans-serif">
  <defs>
    <linearGradient id="bg" x1="0" y1="0" x2="1" y2="1">
      <stop offset="0" stop-color="#6C5CE7"/>
      <stop offset="0.55" stop-color="#5B4BD6"/>
      <stop offset="1" stop-color="#1E1E2E"/>
    </linearGradient>
    <linearGradient id="accent" x1="0" y1="0" x2="1" y2="0">
      <stop offset="0" stop-color="#A6E3A1"/>
      <stop offset="1" stop-color="#89B4FA"/>
    </linearGradient>
  </defs>
  <rect width="1200" height="360" rx="24" fill="url(#bg)"/>
  <g opacity="0.10" stroke="#FFFFFF" stroke-width="1">
    <circle cx="1050" cy="70" r="120" fill="none"/>
    <circle cx="1120" cy="250" r="80" fill="none"/>
  </g>
  <text x="64" y="120" fill="#FFFFFF" font-size="64" font-weight="800">Widget&#160;Gallery</text>
  <rect x="66" y="140" width="120" height="6" rx="3" fill="url(#accent)"/>
  <text x="64" y="190" fill="#E8E6FB" font-size="24">41 copy-paste UI widgets &#183; live previews &#183; one-tap source</text>
  <text x="64" y="226" fill="#C9C4F0" font-size="19">Built twice &#8212; Flutter &amp; native Android (Jetpack Compose)</text>

  <g font-size="16" font-weight="700">
    <rect x="64" y="262" width="118" height="40" rx="20" fill="#42A5F5"/>
    <text x="123" y="288" fill="#FFFFFF" text-anchor="middle">Flutter</text>
    <rect x="194" y="262" width="110" height="40" rx="20" fill="#7F52FF"/>
    <text x="249" y="288" fill="#FFFFFF" text-anchor="middle">Kotlin</text>
    <rect x="316" y="262" width="168" height="40" rx="20" fill="#1E1E2E"/>
    <text x="400" y="288" fill="#FFFFFF" text-anchor="middle">Jetpack Compose</text>
    <rect x="496" y="262" width="232" height="40" rx="20" fill="#1E1E2E"/>
    <text x="612" y="288" fill="#FFFFFF" text-anchor="middle">MVVM &#183; Clean Architecture</text>
  </g>

  <g>
    <circle cx="980" cy="300" r="16" fill="#6C5CE7" stroke="#fff" stroke-width="2"/>
    <circle cx="1018" cy="300" r="16" fill="#0EA5E9" stroke="#fff" stroke-width="2"/>
    <circle cx="1056" cy="300" r="16" fill="#10B981" stroke="#fff" stroke-width="2"/>
    <circle cx="1094" cy="300" r="16" fill="#F97316" stroke="#fff" stroke-width="2"/>
    <circle cx="1132" cy="300" r="16" fill="#F43F5E" stroke="#fff" stroke-width="2"/>
  </g>
  <text x="64" y="338" fill="#9E97D6" font-size="15">Avijit Dutta &#183; avijit1dutta5@gmail.com</text>
</svg>
